<svg xmlns="http://www.w3.org/2000/svg" xmlns:xlink="http://www.w3.org/1999/xlink" viewBox="0 0 1024 1024"><defs><style>.cls-1{fill:#ff723e;}.cls-2{fill:#fff;}</style><symbol id="App_Icon" data-name="App Icon" viewBox="0 0 1024 1024"><rect class="cls-1" width="1024" height="1024"/><polygon class="cls-2" points="475.02 322.11 475.02 381.22 361.19 381.22 361.19 495.06 302.07 495.06 302.07 381.22 188.24 381.22 188.24 322.11 302.07 322.11 302.07 208.27 361.19 208.27 361.19 322.11 475.02 322.11"/><polygon class="cls-2" points="815.72 322.11 815.72 381.22 528.93 381.22 528.93 322.11 815.72 322.11"/><polygon class="cls-2" points="453.95 773.83 412.17 815.65 331.65 735.18 251.18 815.71 209.37 773.92 289.83 693.4 209.3 612.94 251.09 571.12 331.61 651.58 412.07 571.06 453.89 612.84 373.43 693.37 453.95 773.83"/><polygon class="cls-2" points="815.72 670.6 815.72 729.71 528.93 729.71 528.93 670.6 815.72 670.6"/><circle class="cls-2" cx="672.33" cy="619.25" r="34.74"/><circle class="cls-2" cx="672.33" cy="780.97" r="34.74"/></symbol></defs><title>Asset 2</title><g id="Layer_2" data-name="Layer 2"><g id="Edit_-_Icon" data-name="Edit - Icon"><use id="App_Icon-3" data-name="App Icon" width="1024" height="1024" xlink:href="#App_Icon"/></g></g></svg>