<svg xmlns="http://www.w3.org/2000/svg" xmlns:xlink="http://www.w3.org/1999/xlink" viewBox="0 0 40 40"><defs><style>.cls-1{fill:#ff723e;}.cls-2{fill:#fff;}</style><symbol id="App_Icon" data-name="App Icon" viewBox="0 0 1024 1024"><rect class="cls-1" width="1024" height="1024"/><polygon class="cls-2" points="475.02 701.89 475.02 642.78 361.19 642.78 361.19 528.94 302.07 528.94 302.07 642.78 188.24 642.78 188.24 701.89 302.07 701.89 302.07 815.73 361.19 815.73 361.19 701.89 475.02 701.89"/><polygon class="cls-2" points="815.72 701.89 815.72 642.78 528.93 642.78 528.93 701.89 815.72 701.89"/><polygon class="cls-2" points="453.95 250.17 412.17 208.35 331.65 288.82 251.18 208.29 209.37 250.08 289.83 330.6 209.3 411.06 251.09 452.88 331.61 372.42 412.07 452.94 453.89 411.16 373.43 330.63 453.95 250.17"/><polygon class="cls-2" points="815.72 353.4 815.72 294.29 528.93 294.29 528.93 353.4 815.72 353.4"/><circle class="cls-2" cx="672.33" cy="404.75" r="34.74"/><circle class="cls-2" cx="672.33" cy="243.03" r="34.74"/></symbol></defs><title>Asset 2</title><g id="Layer_2" data-name="Layer 2"><g id="Layer_1-2" data-name="Layer 1"><g id="Layer_2-2" data-name="Layer 2"><g id="Edit_-_Icon" data-name="Edit - Icon"><use id="App_Icon-3" data-name="App Icon-3" width="1024" height="1024" transform="matrix(0.04, 0, 0, -0.04, 0, 40)" xlink:href="#App_Icon"/></g></g></g></g></svg>